{"scene":0,"scenes":[{"nodes":[0]}],"asset":{"version":"2.0","generator":"https://github.com/mikedh/trimesh"},"accessors":[{"componentType":5125,"type":"SCALAR","bufferView":0,"count":401076,"max":[66847],"min":[0]},{"componentType":5126,"type":"VEC3","byteOffset":0,"bufferView":1,"count":66848,"max":[9.942299842834473,3.8743999004364014,20.270099639892578],"min":[-3.3882999420166016,-4.165900230407715,0.0]}],"meshes":[{"name":"model.stl","extras":{"header":"\u0000\u0000\u0000\u0000\u0000\u0000\u0000\u0000\u0000\u0000\u0000\u0000\u0000\u0000\u0000\u0000\u0000\u0000\u0000\u0000\u0000\u0000\u0000\u0000\u0000\u0000\u0000\u0000\u0000\u0000\u0000\u0000\u0000\u0000\u0000\u0000\u0000\u0000\u0000\u0000\u0000\u0000\u0000\u0000\u0000\u0000\u0000\u0000\u0000\u0000\u0000\u0000\u0000\u0000\u0000\u0000\u0000\u0000\u0000\u0000\u0000\u0000\u0000\u0000\u0000\u0000\u0000\u0000\u0000\u0000\u0000\u0000\u0000\u0000\u0000\u0000\u0000\u0000\u0000\u0000","processed":true,"name":"model.stl","node":"model.stl"},"primitives":[{"attributes":{"POSITION":1},"indices":0,"mode":4}]}],"nodes":[{"name":"world","children":[1]},{"name":"model.stl","mesh":0}],"buffers":[{"uri":"gltf_buffer_0.bin","byteLength":1604304},{"uri":"gltf_buffer_1.bin","byteLength":802176}],"bufferViews":[{"buffer":0,"byteOffset":0,"byteLength":1604304},{"buffer":1,"byteOffset":0,"byteLength":802176}]}